<svg width="51" height="45" viewBox="0 0 51 45" fill="none" xmlns="http://www.w3.org/2000/svg">
<path d="M49.9975 10.4125L44.06 5.8375C43.6565 5.57848 43.2179 5.37893 42.7575 5.245C42.299 5.09661 41.8217 5.01412 41.34 5H24.25L26.2525 17.5H41.34C41.75 17.5 42.2625 17.4075 42.755 17.255C43.2475 17.1025 43.7225 16.8925 44.0575 16.665L49.995 12.085C50.3325 11.8575 50.5 11.555 50.5 11.25C50.5 10.945 50.3325 10.6425 49.9975 10.4125ZM21.75 0H19.25C18.9185 0 18.6005 0.131696 18.3661 0.366116C18.1317 0.600537 18 0.918479 18 1.25V10H9.66C9.245 10 8.735 10.0925 8.2425 10.2475C7.7475 10.3975 7.275 10.605 6.94 10.8375L1.0025 15.4125C0.665 15.64 0.5 15.945 0.5 16.25C0.5 16.5525 0.665 16.855 1.0025 17.0875L6.94 21.6675C7.275 21.895 7.7475 22.105 8.2425 22.255C8.735 22.4075 9.245 22.5 9.66 22.5H18V43.75C18 44.0815 18.1317 44.3995 18.3661 44.6339C18.6005 44.8683 18.9185 45 19.25 45H21.75C22.0815 45 22.3995 44.8683 22.6339 44.6339C22.8683 44.3995 23 44.0815 23 43.75V1.25C23 0.918479 22.8683 0.600537 22.6339 0.366116C22.3995 0.131696 22.0815 0 21.75 0Z" fill="#9B06FE"/>
</svg>
