<svg width="51" height="50" viewBox="0 0 51 50" fill="none" xmlns="http://www.w3.org/2000/svg">
<path d="M46.3333 6.25H4.66667C2.375 6.25 0.5 8.125 0.5 10.4167V39.5833C0.5 41.875 2.375 43.75 4.66667 43.75H46.3333C48.625 43.75 50.4792 41.875 50.4792 39.5833L50.5 10.4167C50.5 8.125 48.625 6.25 46.3333 6.25ZM17.1667 12.5C20.625 12.5 23.4167 15.2917 23.4167 18.75C23.4167 22.2083 20.625 25 17.1667 25C13.7083 25 10.9167 22.2083 10.9167 18.75C10.9167 15.2917 13.7083 12.5 17.1667 12.5ZM29.6667 37.5H4.66667V35.4167C4.66667 31.25 13 28.9583 17.1667 28.9583C21.3333 28.9583 29.6667 31.25 29.6667 35.4167V37.5ZM37.6875 29.1667H41.1042L44.25 33.3333L40.1042 37.4792C37.375 35.4375 35.3542 32.5208 34.4167 29.1667C34.0417 27.8333 33.8333 26.4375 33.8333 25C33.8333 23.5625 34.0417 22.1667 34.4167 20.8333C35.3542 17.4583 37.375 14.5625 40.1042 12.5208L44.25 16.6667L41.1042 20.8333H37.6875C37.2292 22.1458 36.9583 23.5417 36.9583 25C36.9583 26.4583 37.2292 27.8542 37.6875 29.1667Z" fill="#9B06FE"/>
</svg>
