<svg width="51" height="50" viewBox="0 0 51 50" fill="none" xmlns="http://www.w3.org/2000/svg">
<path d="M44.9445 8.33331H6.05561C5.3189 8.33331 4.61236 8.62597 4.09142 9.14691C3.57049 9.66784 3.27783 10.3744 3.27783 11.1111V38.8889C3.27783 39.6256 3.57049 40.3321 4.09142 40.8531C4.61236 41.374 5.3189 41.6666 6.05561 41.6666H44.9445C45.6812 41.6666 46.3877 41.374 46.9087 40.8531C47.4296 40.3321 47.7223 39.6256 47.7223 38.8889V11.1111C47.7223 10.3744 47.4296 9.66784 46.9087 9.14691C46.3877 8.62597 45.6812 8.33331 44.9445 8.33331ZM42.8056 38.8889H8.36117L18.0834 28.8333L16.0834 26.9028L6.05561 37.2778V13.2222L23.3195 30.4028C23.8399 30.9201 24.544 31.2105 25.2778 31.2105C26.0117 31.2105 26.7157 30.9201 27.2362 30.4028L44.9445 12.7916V37.0972L34.7223 26.875L32.7639 28.8333L42.8056 38.8889ZM7.87505 11.1111H42.6945L25.2778 28.4305L7.87505 11.1111Z" fill="#9B06FE"/>
</svg>
