<svg width="62" height="62" viewBox="0 0 62 62" fill="none" xmlns="http://www.w3.org/2000/svg">
<rect width="62" height="62" rx="31" fill="#F7F9F9"/>
<path d="M42 31C42 24.9248 37.0751 20 31 20C24.9249 20 20 24.9248 20 31C20 35.0323 22.1697 38.5578 25.4054 40.4728C27.2781 41.5812 29.2812 39.8994 29.2812 37.7233V35.5761C29.2812 34.8049 28.656 34.1797 27.8848 34.1797C27.1135 34.1797 26.4883 33.5544 26.4883 32.7832V32.3964C26.4883 31.6252 27.1135 31 27.8848 31C28.656 31 29.2812 30.3747 29.2812 29.6035V28.5765C29.2812 25.8197 30.9235 24.2968 33.4361 24.2968C33.8595 24.2968 34.2898 24.3234 34.6697 24.3579C35.3823 24.4226 35.8984 25.035 35.8984 25.7505V25.8316C35.8984 26.5977 35.2774 27.2187 34.5114 27.2187C33.1449 27.2187 32.7188 28.0666 32.7188 28.9365V29.5909C32.7188 30.3691 33.3496 31 34.1278 31C34.9912 31 35.6515 31.7693 35.5206 32.6227L35.4613 33.0095C35.3581 33.6826 34.779 34.1797 34.098 34.1797C33.3363 34.1797 32.7188 34.7972 32.7188 35.5589V37.7233C32.7188 39.8994 34.7219 41.5812 36.5946 40.4728C39.8303 38.5578 42 35.0323 42 31Z" fill="#1877F2"/>
<path d="M34.098 34.1797C34.779 34.1797 35.3581 33.6827 35.4613 33.0095L35.5206 32.6227C35.6515 31.7693 34.9912 31 34.1278 31C33.3496 31 32.7188 30.3691 32.7188 29.5909V28.9366C32.7188 28.0667 33.1449 27.2188 34.5114 27.2188C35.2774 27.2188 35.8984 26.5977 35.8984 25.8317V25.7506C35.8984 25.035 35.3823 24.4226 34.6697 24.3579C34.2898 24.3235 33.8595 24.2969 33.4361 24.2969C30.9235 24.2969 29.2813 25.8197 29.2813 28.5766V29.6035C29.2813 30.3748 28.656 31 27.8848 31C27.1135 31 26.4883 31.6252 26.4883 32.3965V32.7832C26.4883 33.5545 27.1135 34.1797 27.8848 34.1797C28.656 34.1797 29.2813 34.8049 29.2813 35.5762V40.1407C29.2813 41.1342 30.0065 42 31 42C31.9935 42 32.7188 41.1342 32.7188 40.1407V35.5589C32.7188 34.7972 33.3363 34.1797 34.098 34.1797Z" fill="white"/>
</svg>
