<svg width="51" height="50" viewBox="0 0 51 50" fill="none" xmlns="http://www.w3.org/2000/svg">
<path d="M33.3125 4.68752C26.3907 4.68752 20.8125 10.2656 20.8125 17.1875C20.8125 17.5547 20.8704 18.0516 20.911 18.5063L7.5313 31.8844C6.80046 32.6105 6.22045 33.474 5.82465 34.4251C5.42886 35.3763 5.2251 36.3964 5.2251 37.4266C5.2251 38.4568 5.42886 39.4769 5.82465 40.428C6.22045 41.3792 6.80046 42.2427 7.5313 42.9688C8.25741 43.6996 9.12089 44.2796 10.0721 44.6754C11.0232 45.0712 12.0433 45.275 13.0735 45.275C14.1037 45.275 15.1238 45.0712 16.0749 44.6754C17.0261 44.2796 17.8896 43.6996 18.6157 42.9688L31.9938 29.5891C32.4469 29.6297 32.9469 29.6875 33.3125 29.6875C40.2344 29.6875 45.8125 24.1094 45.8125 17.1875C45.8208 15.1734 45.3164 13.1904 44.3469 11.425L43.3704 9.61877L41.9063 11.0844L35.1672 17.7719L32.7266 15.3313L39.4141 8.59377L40.8829 7.12814L39.0751 6.15158C37.309 5.18397 35.3263 4.68023 33.3125 4.68752ZM33.3125 7.81252C34.0719 7.81252 34.6376 8.14064 35.3126 8.30158L29.4063 14.2078L28.2813 15.3328L29.4063 16.4063L34.0938 21.0938L35.1688 22.2188L36.2907 21.0938L42.2001 15.1875C42.361 15.8625 42.6875 16.4281 42.6875 17.1875C42.6875 22.4531 38.5782 26.5625 33.3125 26.5625C32.6875 26.5625 32.1876 26.5625 31.7969 26.4641L30.9688 26.2203L30.3344 26.8563L16.4172 40.7735C14.4954 42.6953 11.6516 42.6953 9.72974 40.7735L9.67974 40.7235C7.80474 38.8016 7.82036 35.9891 9.72661 34.0828L23.6438 20.1672L24.2797 19.5328L24.0329 18.7047C23.9391 18.3141 23.936 17.8141 23.936 17.1891C23.936 11.9235 28.0454 7.81408 33.311 7.81408L33.3125 7.81252Z" fill="#9B06FE"/>
</svg>
